# xmcd
#
# Track frame offsets:
#	150
#	12869
#	25911
#	41868
#	67609
#	82084
#	94776
#	108739
#	124216
#	138200
#	148884
#	162365
#	177282
#	190414
#	202582
#	217165
#	231220
#	246596
#	261244
#	273483
#	286406
#	299849
#	313719
#	328211
#
# Disc length: 4553 seconds
#
# Revision: 1
# Processed by: cddbd v1.5.2PL0 Copyright (c) Steve Scherf et al.
# Submitted via: audiograbber 1.83.01
#
DISCID=8011c718
DTITLE=sagablues43 - Blueswoman
DYEAR=2007
DGENRE=Blueswoman
TTITLE0=Memphis Minnie Whas the matter with the mill
TTITLE1=Louise Johnson - By the Moon and Stars
TTITLE2=Arizona Dranes- I shall wear a Crown
TTITLE3=Victoria Spivey - New Black Snake Blues
TTITLE4=Mattie Delaney - Down the big Road Blues
TTITLE5=Lulu Jackson - Lost Lover Blues
TTITLE6=Kansas City Kitty -Double Trouble Blues
TTITLE7=Dot Rice - Texas Stomp
TTITLE8=Myrtle Jenkins- When Somebody Loses
TTITLE9=Willie Mae Williams- When The Sun never goes Down
TTITLE10=Madam Ira Mae Littlejohn - I want to see Jesus
TTITLE11=Grace Brim -Man around my Door
TTITLE12=Sister Rosetta Tharpe - God's mighty Hand
TTITLE13=Georgia White -The Blues Ain't Nothin' But...?
TTITLE14=Christine Chatman - Bootin' the Boogie
TTITLE15=Julia Lee - Dream Lucky Blues
TTITLE16=Camille Howard-Business Woman
TTITLE17=Devonia Williams - Alimony Boogie
TTITLE18=Mary Deloatch - I Really Believe
TTITLE19=Sister O.M. Terrell - God's little Birds
TTITLE20=Hadda Brooks - Bully Wully Boogie
TTITLE21=Martha Davis - Kitchen Blues
TTITLE22=Nelly Lutcher - Fine and Mellow
TTITLE23=Sarah McLawler - Blues for Rex
EXTD=
EXTT0=
EXTT1=
EXTT2=
EXTT3=
EXTT4=
EXTT5=
EXTT6=
EXTT7=
EXTT8=
EXTT9=
EXTT10=
EXTT11=
EXTT12=
EXTT13=
EXTT14=
EXTT15=
EXTT16=
EXTT17=
EXTT18=
EXTT19=
EXTT20=
EXTT21=
EXTT22=
EXTT23=
PLAYORDER=
